<?xml version="1.0" encoding="utf-8"?>
<!-- Generator: Adobe Illustrator 21.0.0, SVG Export Plug-In . SVG Version: 6.00 Build 0)  -->
<svg version="1.1" id="Layer_1" xmlns="http://www.w3.org/2000/svg" xmlns:xlink="http://www.w3.org/1999/xlink" x="0px" y="0px"
	 viewBox="0 0 91 113.8" style="enable-background:new 0 0 91 113.8;" xml:space="preserve">
<style type="text/css">
	.st0{fill:#FFFFFF;}
</style>
<g>
	<path class="st0" d="M29.4,33.3c-0.5-0.8-1.6-0.9-2.4-0.4c-2.5,1.8-4.8,0.2-5.1,0c-0.7-0.6-1.8-0.4-2.4,0.3
		c-0.6,0.7-0.5,1.8,0.3,2.4c0.9,0.7,2.6,1.5,4.7,1.5c1.4,0,3-0.4,4.5-1.5C29.8,35.1,30,34,29.4,33.3z"/>
	<path class="st0" d="M20.7,30.2c1.1,0,2-0.9,2-1.9s-0.9-1.9-2-1.9c-1.1,0-1.9,0.9-1.9,1.9S19.6,30.2,20.7,30.2z"/>
	<path class="st0" d="M28.3,30.2c1.1,0,1.9-0.9,1.9-1.9s-0.9-1.9-1.9-1.9c-1.1,0-1.9,0.9-1.9,1.9S27.2,30.2,28.3,30.2z"/>
	<path class="st0" d="M45.5,32.9c-2.5-0.7-4.9,0.6-5.9,1.6c-0.2,0.2-0.3,0.4-0.4,0.6c0,0.1-0.9,2.1-2.2,6c-0.7,2.1-2.8,2.2-3,2.2
		h-1.5c3.3-2.9,5.3-7.1,5.3-11.6c0-8.5-6.9-15.5-15.5-15.5c-8.5,0-15.5,6.9-15.5,15.5c0,4.6,2,8.8,5.3,11.6
		c-2.9,2.1-5.4,5.3-6.7,7.9C3.5,54.6,2.8,58,2.8,68.4c0,1.3,0.8,2.5,2.2,3.2c0.7,0.3,1.6,0.6,2.6,0.6c1,0,2-0.3,2.9-0.9
		c0.6-0.5,1-1.2,1.4-2.2v15.8c0,3.4,2.7,6.1,6.1,6.1c1.7,0,3.3-0.7,4.4-1.9c1.1,1.2,2.7,1.9,4.4,1.9c3.4,0,6.1-2.7,6.1-6.1l0-30.5
		l4.6,0c5.5,0,7.4-4.3,7.5-4.6l4.3-11.4c0.1-0.3,0.1-0.5,0.1-0.8C49.1,36.1,48.1,33.7,45.5,32.9z M41.8,48.4c0,0-1.1,2.5-4.4,2.5
		l-6.3,0c-0.9,0-1.7,0.8-1.7,1.7l0,32.2c0,1.5-1.2,2.7-2.7,2.7c-1.5,0-2.7-1.2-2.7-2.6c0,0,0,0,0-0.1V69.3c0-0.9-0.8-1.7-1.7-1.7
		c-0.9,0-1.7,0.8-1.7,1.7v15.5c0,0,0,0,0,0.1c0,0,0,0,0,0.1c0,1.5-1.2,2.6-2.7,2.6c-1.5,0-2.7-1.2-2.7-2.7V57.3
		c0-0.8-0.5-1.4-1.2-1.6c0,0,0,0-0.1,0c-0.9-0.4-1.9,0-2.3,0.8c-0.9,1.8-1.4,4.4-2,7c-0.4,1.8-1,4.6-1.4,5.1
		c-0.2,0.1-0.6,0.2-1.2,0.2c-0.6-0.1-1-0.4-1-0.3c0-9.8,0.6-12.7,2.2-15.8c1.5-3,4.3-6,6.7-7.3c1,0.5,2.1,1,3.2,1.3
		c0.1,0,0.3,0.1,0.4,0.1c0.8,0,1.4-0.5,1.6-1.3c0.2-0.9-0.3-1.8-1.2-2.1c-5.3-1.4-9-6.2-9-11.7c0-6.7,5.4-12.1,12.1-12.1
		c6.7,0,12.1,5.4,12.1,12.1c0,4.8-2.8,9.1-7.2,11c-0.4,0.2-1.1,1.4-0.8,2.5c0.2,0.9,1.1,1.5,1.5,1.5h6.1c0.2,0,4.7-0.1,6.3-4.5
		c1-2.8,1.7-4.6,2-5.4c0.4-0.3,1.4-0.9,2.3-0.6c0.8,0.2,1.2,1,1.3,1.4L41.8,48.4z"/>
	<path class="st0" d="M66.6,1.3c-13.1,0-23.7,8.2-23.7,18.2c0,4,1.6,7.7,4.6,10.8l2.9,3.5c0.6,0.7,1.7,0.8,2.4,0.2
		c0.7-0.6,0.8-1.7,0.2-2.4l-3-3.6c-2.4-2.5-3.7-5.4-3.7-8.5c0-8.2,9.1-14.8,20.3-14.8c11.2,0,20.3,6.7,20.3,14.8
		s-9.1,14.8-20.3,14.8c-2.3,0-4.6-0.3-6.8-0.9L59,33.3l-6.4,4.6c-0.8,0.5-0.9,1.6-0.4,2.4c0.3,0.5,0.9,0.7,1.4,0.7
		c0.3,0,0.7-0.1,1-0.3l5.1-3.7c2.2,0.5,4.5,0.8,6.9,0.8c13.1,0,23.7-8.2,23.7-18.2C90.3,9.5,79.7,1.3,66.6,1.3z"/>
	<path class="st0" d="M74.8,22.7c0.8,0,1.5-0.6,1.7-1.4l1.4-8.1c0.2-0.9-0.5-1.8-1.4-2c-0.9-0.1-1.8,0.5-2,1.4l-1.4,8.1
		c-0.2,0.9,0.5,1.8,1.4,2C74.6,22.7,74.7,22.7,74.8,22.7z"/>
	<path class="st0" d="M72.1,26.6L72.1,26.6c-0.2,1,0.5,1.8,1.4,2c0.1,0,0.2,0,0.3,0c0.8,0,1.6-0.6,1.7-1.5c0.1-0.9-0.5-1.8-1.4-1.9
		C73.2,25.1,72.3,25.7,72.1,26.6z"/>
	<path class="st0" d="M54.5,19.5c-0.9,0-1.7,0.8-1.7,1.7c0,0.9,0.8,1.7,1.7,1.7h0.9l-0.4,1.9c-0.2,0.9,0.4,1.8,1.3,2
		c0.1,0,0.2,0,0.3,0c0.8,0,1.5-0.6,1.7-1.4l0.5-2.6h3.6l-0.4,1.9c-0.2,0.9,0.4,1.8,1.3,2c0.1,0,0.2,0,0.3,0c0.8,0,1.5-0.6,1.7-1.4
		l0.5-2.6h1.6c0.9,0,1.7-0.8,1.7-1.7c0-0.9-0.8-1.7-1.7-1.7h-0.9l0.4-1.9h1.6c0.9,0,1.7-0.8,1.7-1.7c0-0.9-0.8-1.7-1.7-1.7h-0.9
		l0.3-1.8c0.2-0.9-0.4-1.8-1.3-2c-0.9-0.2-1.8,0.4-2,1.3l-0.5,2.4h-3.6l0.3-1.8c0.2-0.9-0.4-1.8-1.3-2c-0.9-0.2-1.8,0.4-2,1.3
		l-0.5,2.4h-1.6c-0.9,0-1.7,0.8-1.7,1.7c0,0.9,0.8,1.7,1.7,1.7h0.9l-0.4,1.9H54.5z M59.9,17.6h3.6l-0.4,1.9h-3.6L59.9,17.6z"/>
	<path class="st0" d="M26.4,1.2L24,8.3c-0.3,0.9,0.2,1.9,1,2.2c0.2,0.1,0.4,0.1,0.6,0.1c0.7,0,1.4-0.4,1.6-1.1l2.5-7.1
		c0.3-0.9-0.2-1.9-1-2.2C27.7-0.1,26.7,0.3,26.4,1.2z"/>
	<path class="st0" d="M12.9,0.2c-0.9,0.3-1.4,1.3-1,2.2l2.5,7.1c0.2,0.7,0.9,1.1,1.6,1.1c0.2,0,0.4,0,0.6-0.1c0.9-0.3,1.4-1.3,1-2.2
		l-2.5-7.1C14.8,0.4,13.8-0.1,12.9,0.2z"/>
	<path class="st0" d="M6.8,15c0.5,0,1-0.2,1.4-0.7c0.6-0.8,0.4-1.8-0.4-2.4L3.4,8.7C2.6,8.1,1.5,8.3,1,9c-0.6,0.8-0.4,1.8,0.4,2.4
		l4.5,3.3C6.1,14.9,6.5,15,6.8,15z"/>
</g>
</svg>
