<svg xmlns="http://www.w3.org/2000/svg" xmlns:xlink="http://www.w3.org/1999/xlink" version="1.1" x="0px" y="0px" viewBox="0 0 100 125" style="enable-background:new 0 0 100 100;" xml:space="preserve"><g><path d="M81.9,36.8l-16.9-2.4l-7.5-15.3C56.3,16.5,53.8,15,51,15s-5.3,1.6-6.6,4.1l-7.5,15.3l-16.9,2.4c-2.8,0.4-5,2.3-5.9,5   c-0.9,2.7-0.2,5.5,1.8,7.5l12.2,11.9l-2.9,16.8c-0.5,2.8,0.6,5.5,2.9,7.1c2.3,1.6,5.2,1.9,7.7,0.6L51,77.7l15.1,7.9   c1.1,0.6,2.2,0.8,3.4,0.8c1.5,0,3-0.5,4.3-1.4c2.3-1.6,3.4-4.4,2.9-7.1l-2.9-16.8L86,49.2c2-2,2.7-4.8,1.8-7.5   C87,39.1,84.7,37.2,81.9,36.8z M68,55.6c-1.7,1.7-2.5,4.1-2.1,6.5l2.7,15.8l-14.2-7.4c-1.1-0.6-2.2-0.8-3.4-0.8   c-1.2,0-2.3,0.3-3.4,0.8l-14.2,7.4l2.7-15.8c0.4-2.4-0.4-4.8-2.1-6.5L22.6,44.5l15.8-2.3c2.4-0.3,4.4-1.8,5.5-4L51,23.8l7.1,14.3   c1.1,2.2,3.1,3.7,5.5,4l15.8,2.3L68,55.6z"/></g></svg>
