<svg xmlns:dc="http://purl.org/dc/elements/1.1/" xmlns:cc="http://creativecommons.org/ns#" xmlns:rdf="http://www.w3.org/1999/02/22-rdf-syntax-ns#" xmlns:svg="http://www.w3.org/2000/svg" xmlns="http://www.w3.org/2000/svg" xmlns:sodipodi="http://sodipodi.sourceforge.net/DTD/sodipodi-0.dtd" xmlns:inkscape="http://www.inkscape.org/namespaces/inkscape" version="1.1" x="0px" y="0px" viewBox="0 0 100 125"><g transform="translate(0,-952.36218)"><path style="font-size:medium;font-style:normal;font-variant:normal;font-weight:normal;font-stretch:normal;text-indent:0;text-align:start;text-decoration:none;line-height:normal;letter-spacing:normal;word-spacing:normal;text-transform:none;direction:ltr;block-progression:tb;writing-mode:lr-tb;text-anchor:start;baseline-shift:baseline;opacity:1;color:#000000;fill:#000000;fill-opacity:1;stroke:none;stroke-width:6;marker:none;visibility:visible;display:inline;overflow:visible;enable-background:accumulate;font-family:Sans;-inkscape-font-specification:Sans" d="M 27.6875 10 A 3.0003 3.0003 0 0 0 25 13 L 25 30 L 8 30 C 7.8959276 29.995 7.7915724 29.995 7.6875 30 C 6.2236588 30.15343 4.9921284 31.52816 5 33 L 5 77 C 5.0001571 78.5708 6.4292466 79.9998 8 80 L 13 80 L 13 87 C 12.996 88.159 13.72076 89.31355 14.78125 89.78125 C 15.84174 90.24895 17.178136 90.00335 18.03125 89.21875 L 28.1875 80 L 72 80 C 73.570753 79.9998 74.999843 78.5708 75 77 L 75 62.90625 L 81.96875 69.21875 A 3.0003 3.0003 0 0 0 87 67 L 87 60 L 92 60 A 3.0003 3.0003 0 0 0 95 57 L 95 13 A 3.0003 3.0003 0 0 0 92 10 L 28 10 A 3.0003 3.0003 0 0 0 27.6875 10 z M 31 16 L 89 16 L 89 54 L 84 54 A 3.0003 3.0003 0 0 0 81 57 L 81 60.21875 L 75.03125 54.78125 A 3.0003 3.0003 0 0 0 73 54 L 31 54 L 31 16 z M 37.6875 20 A 3.0040663 3.0040663 0 1 0 38 26 L 82 26 A 3.0003 3.0003 0 1 0 82 20 L 38 20 A 3.0003 3.0003 0 0 0 37.6875 20 z M 37.6875 32 A 3.0040663 3.0040663 0 1 0 38 38 L 82 38 A 3.0003 3.0003 0 1 0 82 32 L 38 32 A 3.0003 3.0003 0 0 0 37.6875 32 z M 11 36 L 25 36 L 25 57 A 3.0003 3.0003 0 0 0 28 60 L 69 60 L 69 74 L 27 74 C 26.257649 74 25.51781 74.28165 24.96875 74.78125 L 19 80.21875 L 19 77 C 18.999843 75.4292 17.570753 74.0002 16 74 L 11 74 L 11 36 z M 37.6875 44 A 3.0040663 3.0040663 0 1 0 38 50 L 82 50 A 3.0003 3.0003 0 1 0 82 44 L 38 44 A 3.0003 3.0003 0 0 0 37.6875 44 z " transform="translate(0,952.36218)"/></g></svg>
