<svg xmlns="http://www.w3.org/2000/svg" xmlns:xlink="http://www.w3.org/1999/xlink" version="1.1" x="0px" y="0px" viewBox="0 0 91 113.75" enable-background="new 0 0 91 91" xml:space="preserve"><g><path d="M29.423,33.272c-0.548-0.763-1.61-0.943-2.373-0.392c-2.549,1.82-4.808,0.231-5.068,0.036   c-0.74-0.572-1.799-0.441-2.379,0.294c-0.581,0.738-0.45,1.808,0.287,2.389c0.898,0.706,2.62,1.537,4.657,1.537   c1.4,0,2.952-0.394,4.482-1.493C29.794,35.098,29.971,34.034,29.423,33.272z"/><path d="M20.692,30.235c1.074,0,1.95-0.872,1.95-1.944s-0.876-1.942-1.95-1.942c-1.069,0-1.938,0.871-1.938,1.942   S19.623,30.235,20.692,30.235z"/><path d="M28.276,30.235c1.074,0,1.946-0.872,1.946-1.944s-0.872-1.942-1.946-1.942c-1.068,0-1.936,0.871-1.936,1.942   S27.208,30.235,28.276,30.235z"/><path d="M45.474,32.901c-2.532-0.74-4.885,0.63-5.872,1.558c-0.172,0.16-0.307,0.354-0.399,0.569   c-0.035,0.083-0.903,2.112-2.239,5.994c-0.717,2.083-2.817,2.187-3.035,2.191h-1.546c3.298-2.893,5.288-7.111,5.288-11.642   c0-8.537-6.945-15.481-15.484-15.481c-8.535,0-15.479,6.945-15.479,15.481c0,4.578,2.015,8.772,5.286,11.644   c-2.927,2.082-5.397,5.288-6.696,7.901c-1.76,3.53-2.545,6.867-2.545,17.311c0,1.303,0.831,2.481,2.226,3.153   c0.722,0.346,1.636,0.574,2.571,0.574c1.009,0,2.042-0.268,2.87-0.928c0.566-0.453,0.983-1.188,1.355-2.217v15.81   c0,3.368,2.736,6.107,6.1,6.107c1.728,0,3.285-0.73,4.396-1.892c1.111,1.161,2.667,1.892,4.397,1.892   c3.366,0,6.103-2.739,6.103-6.107l0.01-30.507l4.643-0.027c5.454,0,7.406-4.335,7.522-4.604l4.253-11.419   c0.095-0.261,0.127-0.544,0.091-0.82C49.112,36.12,48.108,33.674,45.474,32.901z M41.792,48.408   c-0.01,0.024-1.115,2.474-4.378,2.474l-6.344,0.04c-0.935,0.004-1.69,0.765-1.69,1.7l-0.01,32.197c0,1.493-1.212,2.706-2.701,2.706   c-1.469,0-2.664-1.183-2.695-2.646c0-0.021,0.006-0.039,0.006-0.061V69.267c0-0.941-0.762-1.701-1.701-1.701   c-0.941,0-1.701,0.76-1.701,1.701v15.496c-0.002,0.02-0.012,0.037-0.012,0.057c0,0.021,0.004,0.04,0.006,0.061   c-0.034,1.463-1.228,2.646-2.697,2.646c-1.487,0-2.697-1.213-2.697-2.706v-27.48c0-0.75-0.49-1.366-1.163-1.594   c-0.024-0.015-0.04-0.036-0.065-0.048c-0.851-0.403-1.863-0.037-2.265,0.813c-0.854,1.812-1.432,4.432-1.989,6.965   c-0.403,1.831-1.015,4.601-1.398,5.093c-0.174,0.14-0.635,0.23-1.173,0.15c-0.603-0.094-0.953-0.356-0.971-0.291   c0-9.82,0.645-12.698,2.189-15.794c1.469-2.954,4.251-5.979,6.7-7.33c1.017,0.531,2.098,0.959,3.241,1.258   c0.145,0.038,0.287,0.054,0.429,0.054c0.756,0,1.446-0.509,1.646-1.274c0.235-0.907-0.309-1.836-1.22-2.072   c-5.315-1.382-9.029-6.192-9.029-11.697c0-6.662,5.418-12.08,12.079-12.08c6.662,0,12.083,5.418,12.083,12.08   c0,4.772-2.818,9.106-7.176,11.042c-0.4,0.178-1.064,1.39-0.836,2.488c0.186,0.888,1.089,1.513,1.529,1.513h6.144   c0.192,0,4.724-0.052,6.251-4.485c0.967-2.812,1.688-4.635,1.991-5.379c0.435-0.311,1.39-0.876,2.348-0.585   c0.809,0.236,1.164,0.961,1.311,1.396L41.792,48.408z"/><path d="M66.573,1.273c-13.091,0-23.739,8.183-23.739,18.238c0,3.951,1.604,7.704,4.567,10.773l2.947,3.486   c0.604,0.716,1.677,0.811,2.396,0.2c0.718-0.605,0.807-1.679,0.202-2.397l-3.022-3.569c-2.414-2.504-3.689-5.44-3.689-8.494   c0-8.181,9.124-14.837,20.338-14.837c11.217,0,20.343,6.656,20.343,14.837c0,8.181-9.126,14.835-20.343,14.835   c-2.327,0-4.613-0.287-6.792-0.853l-0.77-0.2l-6.408,4.6c-0.766,0.548-0.939,1.609-0.393,2.373c0.332,0.463,0.854,0.71,1.385,0.71   c0.344,0,0.69-0.103,0.99-0.32l5.124-3.676c2.219,0.51,4.524,0.77,6.863,0.77c13.094,0,23.744-8.181,23.744-18.239   C90.317,9.456,79.667,1.273,66.573,1.273z"/><path d="M74.827,22.713c0.815,0,1.535-0.587,1.677-1.418l1.381-8.135c0.156-0.925-0.467-1.803-1.393-1.961   c-0.921-0.141-1.805,0.467-1.961,1.394l-1.382,8.135c-0.156,0.925,0.467,1.803,1.394,1.961   C74.638,22.705,74.733,22.713,74.827,22.713z"/><path d="M72.144,26.621l-0.008,0.051c-0.144,0.93,0.497,1.772,1.422,1.918c0.088,0.014,0.174,0.02,0.258,0.02   c0.828,0,1.561-0.623,1.692-1.465c0.145-0.929-0.49-1.798-1.419-1.944C73.167,25.066,72.29,25.695,72.144,26.621z"/><path d="M54.511,19.52c-0.938,0-1.7,0.759-1.7,1.7c0,0.94,0.762,1.701,1.7,1.701h0.93l-0.373,1.917   c-0.181,0.921,0.42,1.815,1.342,1.995c0.111,0.022,0.22,0.032,0.328,0.032c0.797,0,1.509-0.563,1.667-1.375l0.501-2.569h3.614   l-0.373,1.917c-0.178,0.921,0.423,1.815,1.345,1.995c0.108,0.022,0.219,0.032,0.328,0.032c0.797,0,1.508-0.563,1.666-1.375   l0.501-2.569h1.594c0.941,0,1.701-0.761,1.701-1.701c0-0.941-0.76-1.7-1.701-1.7h-0.93l0.372-1.917h1.593   c0.94,0,1.701-0.761,1.701-1.701c0-0.941-0.761-1.701-1.701-1.701h-0.928l0.346-1.784c0.18-0.921-0.422-1.815-1.343-1.993   c-0.918-0.182-1.817,0.421-1.996,1.343l-0.475,2.434h-3.618l0.348-1.784c0.18-0.921-0.422-1.815-1.344-1.993   c-0.922-0.182-1.815,0.421-1.995,1.343l-0.473,2.434h-1.594c-0.939,0-1.701,0.76-1.701,1.701c0,0.939,0.762,1.701,1.701,1.701   h0.932l-0.373,1.917H54.511z M59.939,17.603h3.618l-0.373,1.917h-3.617L59.939,17.603z"/><path d="M26.435,1.236l-2.484,7.077c-0.313,0.886,0.154,1.856,1.041,2.167c0.186,0.067,0.375,0.097,0.563,0.097   c0.702,0,1.358-0.437,1.605-1.139l2.484-7.078c0.313-0.885-0.154-1.857-1.04-2.167C27.724-0.123,26.747,0.348,26.435,1.236z"/><path d="M12.915,0.191c-0.888,0.31-1.354,1.281-1.046,2.167l2.476,7.08c0.245,0.7,0.904,1.139,1.605,1.139   c0.187,0,0.376-0.03,0.562-0.095c0.888-0.311,1.354-1.281,1.046-2.167l-2.476-7.077C14.773,0.352,13.807-0.113,12.915,0.191z"/><path d="M6.812,15.003c0.522,0,1.038-0.24,1.371-0.692c0.56-0.755,0.397-1.819-0.36-2.377L3.372,8.653   C2.62,8.098,1.548,8.255,0.994,9.013c-0.558,0.757-0.397,1.821,0.36,2.376l4.451,3.281C6.108,14.896,6.462,15.003,6.812,15.003z"/></g></svg>
